<?xml version="1.0" standalone="no"?>
<!DOCTYPE svg PUBLIC "-//W3C//DTD SVG 20010904//EN"
 "http://www.w3.org/TR/2001/REC-SVG-20010904/DTD/svg10.dtd">
<svg version="1.0" xmlns="http://www.w3.org/2000/svg"
 width="500.000000pt" height="500.000000pt" viewBox="0 0 500.000000 500.000000"
 preserveAspectRatio="xMidYMid meet">

<g transform="translate(0.000000,500.000000) scale(0.100000,-0.100000)"
fill="#000000" stroke="none">
<path d="M2498 4035 c-15 -8 -32 -31 -39 -50 l-13 -35 -68 0 -68 0 0 -100 0
-100 235 0 235 0 0 100 0 100 -65 0 c-53 0 -65 3 -65 16 0 9 -15 31 -34 50
-38 38 -73 43 -118 19z m82 -60 c14 -17 5 -51 -16 -59 -22 -8 -54 11 -54 32 0
38 46 56 70 27z"/>
<path d="M2130 3485 l0 -75 80 0 80 0 0 75 0 75 -80 0 -80 0 0 -75z m138 -2
l-3 -58 -57 -3 -58 -3 0 61 0 60 60 0 61 0 -3 -57z"/>
<path d="M2498 3483 c83 -2 221 -2 305 0 83 1 15 3 -153 3 -168 0 -236 -2
-152 -3z"/>
<path d="M2130 3275 l0 -75 80 0 80 0 0 75 0 75 -80 0 -80 0 0 -75z m140 -5
l0 -60 -60 0 -60 0 0 60 0 60 60 0 60 0 0 -60z"/>
<path d="M2498 3273 c83 -2 221 -2 305 0 83 1 15 3 -153 3 -168 0 -236 -2
-152 -3z"/>
<path d="M2130 3060 l0 -80 80 0 80 0 0 80 0 80 -80 0 -80 0 0 -80z m140 0 l0
-60 -60 0 -60 0 0 60 0 60 60 0 60 0 0 -60z"/>
<path d="M2498 3063 c83 -2 221 -2 305 0 83 1 15 3 -153 3 -168 0 -236 -2
-152 -3z"/>
<path d="M2130 2850 l0 -80 80 0 80 0 0 80 0 80 -80 0 -80 0 0 -80z m140 0 l0
-60 -60 0 -60 0 0 60 0 60 60 0 60 0 0 -60z"/>
<path d="M2350 2850 c0 -6 107 -10 300 -10 193 0 300 4 300 10 0 6 -107 10
-300 10 -193 0 -300 -4 -300 -10z"/>
<path d="M2130 2635 l0 -75 80 0 80 0 0 75 0 75 -80 0 -80 0 0 -75z m140 5 l0
-60 -60 0 -60 0 0 60 0 60 60 0 60 0 0 -60z"/>
<path d="M2350 2640 c0 -6 107 -10 300 -10 193 0 300 4 300 10 0 6 -107 10
-300 10 -193 0 -300 -4 -300 -10z"/>
<path d="M2130 2410 l0 -80 80 0 80 0 0 80 0 80 -80 0 -80 0 0 -80z m140 0 l0
-60 -60 0 -60 0 0 60 0 60 60 0 60 0 0 -60z"/>
<path d="M2498 2413 c83 -2 221 -2 305 0 83 1 15 3 -153 3 -168 0 -236 -2
-152 -3z"/>
<path d="M1118 1780 c3 -87 6 -110 17 -110 12 0 13 10 8 46 -6 47 -6 47 21 40
26 -6 64 7 78 28 14 21 8 66 -12 86 -14 14 -33 20 -67 20 l-48 0 3 -110z m100
52 c4 -42 -14 -64 -47 -60 -23 3 -26 8 -29 51 l-3 48 38 -3 c35 -3 38 -6 41
-36z"/>
<path d="M1342 1802 c-18 -48 -36 -97 -39 -109 -9 -36 12 -26 26 12 11 33 15
35 56 35 41 0 44 -2 55 -35 6 -19 18 -35 26 -35 11 0 9 11 -7 53 -12 28 -30
78 -41 110 -11 31 -25 57 -31 57 -7 0 -27 -40 -45 -88z m61 3 l16 -45 -34 0
-34 0 16 45 c8 25 16 45 18 45 2 0 10 -20 18 -45z"/>
<path d="M1532 1788 l3 -103 38 -10 c30 -7 45 -5 65 6 33 18 42 68 16 93 -12
13 -14 20 -5 29 18 18 13 65 -8 77 -11 5 -40 10 -66 10 l-46 0 3 -102z m97 64
c14 -27 -5 -52 -39 -52 -28 0 -30 3 -30 35 0 32 2 35 30 35 18 0 33 -7 39 -18z
m-1 -84 c31 -31 3 -82 -40 -76 -19 2 -23 10 -26 46 -3 40 -2 42 25 42 16 0 34
-5 41 -12z"/>
<path d="M1742 1783 l3 -108 34 -3 c38 -4 81 5 81 16 0 4 -20 6 -45 4 l-45 -4
0 101 c0 84 -3 101 -15 101 -13 0 -15 -16 -13 -107z"/>
<path d="M1912 1783 c2 -74 7 -108 16 -111 9 -3 12 23 12 107 0 93 -2 111 -15
111 -13 0 -15 -16 -13 -107z"/>
<path d="M2022 1783 c2 -80 6 -108 17 -111 12 -4 13 11 9 82 -4 50 -2 86 3 84
5 -2 31 -39 57 -82 26 -44 53 -82 60 -84 9 -3 12 23 12 107 0 95 -2 111 -16
111 -14 0 -15 -10 -9 -80 5 -53 4 -80 -3 -80 -6 0 -13 9 -17 19 -12 38 -85
141 -100 141 -13 0 -15 -16 -13 -107z"/>
<path d="M2254 1868 c3 -13 6 -63 6 -111 0 -65 3 -88 12 -85 8 3 11 23 9 56
l-2 52 56 0 56 0 -3 -51 c-2 -35 1 -53 10 -56 9 -4 12 22 12 106 0 94 -2 111
-16 111 -12 0 -14 -8 -8 -45 l6 -45 -56 0 -56 0 0 45 c0 35 -4 45 -16 45 -12
0 -15 -6 -10 -22z"/>
<path d="M2519 1862 c-26 -24 -32 -36 -33 -73 -3 -141 174 -162 200 -24 18 99
-93 163 -167 97z m117 -13 c13 -15 19 -36 19 -69 0 -74 -48 -111 -105 -80 -41
22 -49 113 -13 153 22 24 75 22 99 -4z"/>
<path d="M2872 1783 l3 -108 42 -3 c24 -2 51 1 60 7 14 8 8 10 -29 11 -44 0
-47 2 -53 31 -4 17 -5 60 -3 96 2 47 -1 67 -10 71 -10 3 -12 -20 -10 -105z"/>
<path d="M3042 1783 c2 -74 7 -108 16 -111 9 -3 12 23 12 107 0 93 -2 111 -15
111 -13 0 -15 -16 -13 -107z"/>
<path d="M3167 1872 c-20 -22 -22 -65 -3 -81 7 -6 31 -17 52 -25 42 -14 54
-37 33 -62 -13 -16 -55 -15 -93 1 -14 6 -18 5 -14 -6 8 -23 70 -34 104 -18 25
12 29 20 29 54 0 38 -2 40 -45 56 -49 18 -67 38 -57 63 7 18 72 23 82 6 4 -6
11 -7 17 -4 17 11 -22 34 -57 34 -18 0 -39 -8 -48 -18z"/>
<path d="M3330 1880 c0 -5 13 -10 30 -10 l29 0 3 -97 c2 -66 7 -98 16 -101 9
-3 12 21 12 97 l0 101 30 0 c17 0 30 5 30 10 0 6 -32 10 -75 10 -43 0 -75 -4
-75 -10z"/>
<path d="M3564 1788 c-21 -56 -40 -105 -42 -110 -2 -4 1 -8 8 -8 6 0 18 16 26
35 13 32 17 35 58 35 41 0 45 -2 51 -30 6 -29 21 -47 32 -37 9 9 -69 217 -82
217 -6 0 -29 -46 -51 -102z m75 -15 c1 -8 -11 -13 -30 -13 -33 0 -33 3 -7 70
l10 25 13 -35 c8 -19 14 -41 14 -47z"/>
<path d="M3777 1872 c-20 -22 -22 -65 -3 -81 7 -6 31 -17 52 -25 42 -14 54
-37 33 -62 -13 -16 -55 -15 -93 1 -14 6 -18 5 -14 -6 8 -23 70 -34 104 -18 25
12 29 20 29 54 0 38 -2 40 -45 56 -49 18 -67 38 -57 63 7 18 72 23 82 6 4 -6
11 -7 17 -4 17 11 -22 34 -57 34 -18 0 -39 -8 -48 -18z"/>
<path d="M548 1423 c-10 -2 -21 -17 -25 -31 -3 -15 -13 -32 -22 -39 -14 -11
-14 -12 2 -13 14 0 17 -9 17 -55 0 -39 4 -55 13 -55 10 0 13 14 9 55 -4 51 -3
55 17 55 11 0 21 5 21 10 0 6 -9 10 -20 10 -11 0 -20 6 -20 13 0 20 21 36 38
30 9 -4 13 -1 10 7 -5 16 -16 19 -40 13z"/>
<path d="M1752 1333 c2 -66 7 -98 16 -101 9 -3 12 21 12 97 0 84 -3 101 -15
101 -13 0 -15 -15 -13 -97z"/>
<path d="M3700 1342 c0 -98 7 -112 56 -112 38 0 64 29 64 70 0 42 -22 63 -58
58 -31 -4 -32 -4 -32 34 0 27 -4 38 -15 38 -12 0 -15 -16 -15 -88z m88 -25 c2
-10 1 -30 -2 -43 -10 -37 -50 -29 -54 9 -2 16 -1 35 2 44 8 20 50 12 54 -10z"/>
<path d="M3860 1335 c0 -77 3 -97 15 -102 9 -3 17 -4 18 -2 1 2 1 48 -1 102
-3 76 -6 97 -18 97 -11 0 -14 -19 -14 -95z"/>
<path d="M4210 1330 c0 -82 3 -100 15 -100 12 0 15 13 15 56 0 52 1 55 23 52
19 -3 22 -10 25 -55 2 -38 7 -53 18 -53 10 0 14 14 14 54 0 61 -15 81 -55 74
-23 -5 -25 -2 -25 33 0 28 -4 39 -15 39 -12 0 -15 -18 -15 -100z"/>
<path d="M1192 1398 c-30 -30 -8 -71 51 -96 19 -8 27 -18 25 -30 -4 -20 -44
-28 -63 -12 -8 6 -19 9 -25 5 -21 -13 11 -35 51 -35 30 0 42 6 55 25 22 34 11
59 -39 81 -23 10 -42 26 -42 34 0 19 41 25 61 9 17 -14 29 -6 21 16 -8 18 -77
21 -95 3z"/>
<path d="M1842 1394 c4 -21 22 -23 26 -1 2 10 -3 17 -13 17 -10 0 -15 -6 -13
-16z"/>
<path d="M2453 1384 c-22 -22 -25 -32 -20 -72 3 -31 12 -52 27 -64 28 -23 98
-24 107 -3 7 21 -4 32 -19 17 -34 -34 -88 5 -88 64 0 50 56 84 88 52 15 -15
26 -4 19 17 -11 26 -83 20 -114 -11z"/>
<path d="M3390 1320 c0 -73 3 -90 15 -90 11 0 15 11 15 36 0 31 3 36 19 31 31
-8 61 20 61 57 0 43 -16 56 -67 56 l-43 0 0 -90z m75 35 c0 -23 -5 -31 -22
-33 -20 -3 -23 1 -23 33 0 32 3 36 23 33 17 -2 22 -10 22 -33z"/>
<path d="M3950 1396 c0 -8 4 -17 8 -20 13 -8 35 11 28 23 -10 16 -36 14 -36
-3z"/>
<path d="M2080 1379 c0 -7 -8 -18 -17 -25 -17 -13 -17 -13 0 -14 13 0 17 -9
17 -43 0 -24 5 -48 12 -55 15 -15 58 -16 58 -2 0 6 -9 10 -20 10 -17 0 -20 7
-20 45 0 38 3 45 20 45 11 0 20 5 20 10 0 6 -9 10 -19 10 -10 0 -21 7 -25 15
-6 18 -26 20 -26 4z"/>
<path d="M790 1353 c-29 -37 -21 -83 21 -126 27 -26 29 -33 15 -35 -9 -2 -15
-9 -13 -15 5 -17 21 -18 42 -3 17 12 18 18 8 34 -10 17 -9 21 8 25 10 3 19 12
19 21 0 12 -7 14 -29 10 -23 -5 -32 -2 -41 16 -19 35 2 72 37 68 20 -2 29 2
31 15 3 14 -4 17 -37 17 -31 0 -44 -6 -61 -27z"/>
<path d="M630 1350 c-11 -7 -12 -12 -4 -20 9 -9 14 -9 18 -1 12 19 46 13 46
-8 0 -15 -8 -21 -32 -23 -29 -3 -33 -6 -33 -33 0 -29 2 -30 48 -31 l47 -1 0
48 c0 26 -3 54 -6 63 -7 18 -60 22 -84 6z m60 -80 c0 -13 -7 -20 -20 -20 -19
0 -27 20 -13 33 13 14 33 6 33 -13z"/>
<path d="M941 1346 c-17 -20 3 -30 28 -14 15 9 23 10 32 1 16 -16 2 -33 -25
-33 -32 0 -53 -26 -39 -48 7 -11 26 -18 57 -19 l46 -2 0 45 c0 63 -13 84 -54
84 -19 0 -39 -6 -45 -14z m69 -71 c0 -21 -28 -31 -43 -16 -9 9 -8 14 3 21 22
14 40 12 40 -5z"/>
<path d="M1352 1299 l3 -64 53 -2 53 -1 -3 60 c-4 79 -26 91 -30 16 -3 -46 -6
-53 -25 -56 -20 -3 -22 2 -25 49 -2 32 -8 54 -16 57 -10 3 -12 -11 -10 -59z"/>
<path d="M1513 1345 c-7 -21 4 -32 19 -17 7 7 20 12 31 12 31 0 16 -34 -18
-40 -25 -4 -30 -10 -30 -35 0 -29 2 -30 48 -32 l47 -2 0 53 c0 28 -5 57 -12
64 -18 18 -77 15 -85 -3z m67 -75 c0 -13 -7 -20 -20 -20 -19 0 -27 20 -13 33
13 14 33 6 33 -13z"/>
<path d="M1842 1298 c2 -46 7 -64 18 -66 12 -2 14 9 12 63 -3 49 -7 65 -18 65
-12 0 -14 -13 -12 -62z"/>
<path d="M1943 1354 c-7 -3 -13 -17 -13 -30 0 -19 8 -29 35 -40 20 -8 33 -19
30 -24 -8 -13 -38 -13 -52 1 -8 8 -13 7 -18 -1 -16 -26 59 -42 83 -18 23 23
13 47 -24 63 -42 17 -37 39 8 30 23 -6 29 -4 26 6 -5 14 -53 22 -75 13z"/>
<path d="M2200 1350 c-11 -7 -12 -12 -4 -20 9 -9 14 -9 18 -1 12 19 46 13 46
-8 0 -15 -8 -21 -32 -23 -29 -3 -33 -6 -33 -33 0 -29 2 -30 48 -31 l47 -1 0
48 c0 26 -3 54 -6 63 -7 18 -60 22 -84 6z m60 -80 c0 -13 -7 -20 -20 -20 -19
0 -27 20 -13 33 13 14 33 6 33 -13z"/>
<path d="M2636 1344 c-9 -8 -16 -31 -16 -49 0 -41 22 -65 59 -65 35 0 61 28
61 67 0 54 -67 85 -104 47z m69 -49 c0 -36 -2 -40 -25 -40 -20 0 -26 6 -28 28
-5 42 5 59 30 55 20 -3 23 -9 23 -43z"/>
<path d="M2792 1297 c4 -78 26 -90 30 -15 3 46 6 53 25 56 20 3 22 -2 25 -49
4 -72 26 -77 30 -7 3 46 6 53 25 56 20 3 22 -2 25 -50 2 -37 7 -54 18 -56 12
-2 14 8 10 60 l-5 63 -93 1 -93 2 3 -61z"/>
<path d="M3145 1346 c-13 -9 -19 -26 -19 -51 0 -25 6 -42 19 -51 29 -21 72
-17 89 8 46 66 -25 141 -89 94z m71 -30 c8 -35 -4 -66 -26 -66 -25 0 -43 35
-36 66 9 34 53 34 62 0z"/>
<path d="M3551 1346 c-17 -20 3 -30 28 -14 15 9 23 10 32 1 16 -16 2 -33 -25
-33 -32 0 -53 -26 -39 -48 7 -11 26 -18 57 -19 l46 -2 0 45 c0 63 -13 84 -54
84 -19 0 -39 -6 -45 -14z m69 -71 c0 -21 -28 -31 -43 -16 -9 9 -8 14 3 21 22
14 40 12 40 -5z"/>
<path d="M3956 1303 c2 -32 3 -61 4 -65 0 -5 6 -8 13 -8 19 0 15 124 -5 128
-12 2 -14 -8 -12 -55z"/>
<path d="M4042 1298 c4 -79 26 -91 30 -16 3 46 6 53 25 56 20 3 22 -2 25 -50
2 -37 7 -54 18 -56 12 -2 14 8 10 60 l-5 63 -53 2 -53 1 3 -60z"/>
<path d="M4387 1342 c-38 -42 -9 -112 46 -112 35 0 57 25 57 65 0 18 -7 41
-16 49 -21 22 -67 20 -87 -2z m73 -28 c12 -31 -3 -64 -29 -64 -26 0 -44 63
-24 83 15 16 44 6 53 -19z"/>
</g>
</svg>
